<svg width="328" height="69" viewBox="0 0 328 69" fill="none" xmlns="http://www.w3.org/2000/svg">
<path d="M327.529 29.8611L323.07 30.1355C322.994 29.7544 322.83 29.4114 322.578 29.1065C322.327 28.794 321.995 28.5463 321.584 28.3634C321.18 28.1728 320.696 28.0775 320.132 28.0775C319.377 28.0775 318.741 28.2376 318.222 28.5577C317.704 28.8702 317.445 29.2894 317.445 29.8153C317.445 30.2346 317.613 30.589 317.948 30.8786C318.283 31.1683 318.859 31.4007 319.674 31.576L322.853 32.2163C324.56 32.5669 325.833 33.1309 326.671 33.9084C327.51 34.6858 327.929 35.7072 327.929 36.9724C327.929 38.1234 327.59 39.1333 326.911 40.0022C326.241 40.8711 325.318 41.5494 324.145 42.0373C322.978 42.5174 321.633 42.7575 320.109 42.7575C317.784 42.7575 315.932 42.2735 314.552 41.3055C313.18 40.3299 312.376 39.0037 312.14 37.3268L316.93 37.0753C317.075 37.7842 317.426 38.3253 317.982 38.6988C318.539 39.0647 319.251 39.2476 320.12 39.2476C320.974 39.2476 321.66 39.0837 322.178 38.756C322.704 38.4206 322.971 37.99 322.978 37.464C322.971 37.022 322.784 36.6599 322.418 36.3779C322.052 36.0883 321.488 35.8672 320.726 35.7148L317.685 35.1088C315.97 34.7659 314.693 34.1713 313.855 33.3253C313.024 32.4792 312.609 31.4007 312.609 30.0897C312.609 28.9617 312.914 27.9899 313.523 27.1743C314.141 26.3588 315.006 25.7299 316.119 25.2879C317.239 24.8458 318.55 24.6248 320.052 24.6248C322.27 24.6248 324.015 25.0935 325.288 26.031C326.568 26.9685 327.315 28.2452 327.529 29.8611Z" fill="#16376D"/>
<path d="M299.744 42.415V24.8538H304.465V27.9179H304.648C304.968 26.8279 305.506 26.0047 306.26 25.4483C307.015 24.8843 307.884 24.6023 308.867 24.6023C309.111 24.6023 309.374 24.6175 309.656 24.648C309.938 24.6785 310.186 24.7204 310.399 24.7738V29.0955C310.171 29.0269 309.854 28.9659 309.45 28.9125C309.046 28.8592 308.677 28.8325 308.341 28.8325C307.625 28.8325 306.985 28.9888 306.42 29.3013C305.864 29.6061 305.422 30.033 305.094 30.5818C304.774 31.1306 304.614 31.7632 304.614 32.4797V42.415H299.744Z" fill="#16376D"/>
<path d="M287.934 42.7575C286.158 42.7575 284.622 42.3802 283.326 41.6257C282.038 40.8635 281.043 39.804 280.342 38.4473C279.641 37.0829 279.29 35.5014 279.29 33.7026C279.29 31.8885 279.641 30.3032 280.342 28.9464C281.043 27.5821 282.038 26.5226 283.326 25.7681C284.622 25.0059 286.158 24.6248 287.934 24.6248C289.71 24.6248 291.242 25.0059 292.53 25.7681C293.826 26.5226 294.824 27.5821 295.525 28.9464C296.227 30.3032 296.577 31.8885 296.577 33.7026C296.577 35.5014 296.227 37.0829 295.525 38.4473C294.824 39.804 293.826 40.8635 292.53 41.6257C291.242 42.3802 289.71 42.7575 287.934 42.7575ZM287.957 38.9846C288.765 38.9846 289.439 38.756 289.98 38.2987C290.521 37.8337 290.929 37.2011 291.204 36.4008C291.486 35.6005 291.627 34.6896 291.627 33.6683C291.627 32.6469 291.486 31.7361 291.204 30.9358C290.929 30.1355 290.521 29.5028 289.98 29.0379C289.439 28.573 288.765 28.3405 287.957 28.3405C287.141 28.3405 286.455 28.573 285.899 29.0379C285.35 29.5028 284.935 30.1355 284.652 30.9358C284.378 31.7361 284.241 32.6469 284.241 33.6683C284.241 34.6896 284.378 35.6005 284.652 36.4008C284.935 37.2011 285.35 37.8337 285.899 38.2987C286.455 38.756 287.141 38.9846 287.957 38.9846Z" fill="#16376D"/>
<path d="M266.002 42.7007C264.668 42.7007 263.46 42.3577 262.378 41.6717C261.303 40.9781 260.449 39.9606 259.817 38.6191C259.192 37.27 258.879 35.616 258.879 33.6571C258.879 31.6449 259.203 29.9719 259.851 28.638C260.499 27.2966 261.36 26.2943 262.435 25.6312C263.517 24.9604 264.702 24.6251 265.99 24.6251C266.974 24.6251 267.793 24.7927 268.449 25.1281C269.112 25.4559 269.645 25.8674 270.049 26.3629C270.461 26.8507 270.773 27.3309 270.987 27.8034H271.135V19H275.994V42.4148H271.192V39.6023H270.987C270.758 40.0901 270.434 40.5741 270.015 41.0543C269.603 41.5269 269.066 41.9194 268.403 42.2319C267.747 42.5444 266.947 42.7007 266.002 42.7007ZM267.545 38.8249C268.33 38.8249 268.994 38.6115 269.535 38.1846C270.083 37.7502 270.503 37.1442 270.792 36.3668C271.09 35.5893 271.238 34.6785 271.238 33.6343C271.238 32.5901 271.093 31.683 270.804 30.9132C270.514 30.1434 270.095 29.5489 269.546 29.1297C268.997 28.7105 268.33 28.5008 267.545 28.5008C266.745 28.5008 266.07 28.7181 265.522 29.1525C264.973 29.587 264.558 30.1891 264.275 30.9589C263.993 31.7288 263.852 32.6205 263.852 33.6343C263.852 34.6556 263.993 35.5588 264.275 36.3439C264.565 37.1213 264.981 37.7311 265.522 38.1732C266.07 38.6076 266.745 38.8249 267.545 38.8249Z" fill="#16376D"/>
<path d="M244.373 32.262V42.4145H239.503V24.8534H244.145V27.9518H244.351C244.739 26.9304 245.391 26.1225 246.306 25.528C247.22 24.9258 248.329 24.6248 249.633 24.6248C250.852 24.6248 251.915 24.8915 252.822 25.4251C253.729 25.9586 254.434 26.7208 254.938 27.7117C255.441 28.6949 255.692 29.8687 255.692 31.233V42.4145H250.822V32.102C250.829 31.0273 250.555 30.1888 249.998 29.5867C249.442 28.9769 248.676 28.672 247.7 28.672C247.045 28.672 246.466 28.8131 245.963 29.0951C245.467 29.3771 245.078 29.7887 244.796 30.3298C244.522 30.8634 244.381 31.5074 244.373 32.262Z" fill="#16376D"/>
<path d="M228.264 42.7575C226.458 42.7575 224.903 42.3917 223.6 41.66C222.304 40.9206 221.305 39.8764 220.604 38.5273C219.903 37.1706 219.552 35.5662 219.552 33.714C219.552 31.9076 219.903 30.3222 220.604 28.9579C221.305 27.5935 222.292 26.5303 223.565 25.7681C224.846 25.0059 226.347 24.6248 228.07 24.6248C229.228 24.6248 230.307 24.8115 231.305 25.185C232.312 25.5508 233.188 26.1034 233.935 26.8428C234.69 27.5821 235.277 28.512 235.696 29.6324C236.115 30.7452 236.325 32.0486 236.325 33.5425V34.8802H221.496V31.8619H231.74C231.74 31.1606 231.587 30.5394 231.283 29.9983C230.978 29.4571 230.555 29.0341 230.014 28.7292C229.48 28.4167 228.859 28.2605 228.15 28.2605C227.411 28.2605 226.755 28.432 226.183 28.7749C225.619 29.1103 225.177 29.5638 224.857 30.1355C224.537 30.6995 224.373 31.3283 224.366 32.0219V34.8916C224.366 35.7605 224.526 36.5113 224.846 37.1439C225.174 37.7765 225.635 38.2644 226.229 38.6073C226.824 38.9503 227.529 39.1218 228.344 39.1218C228.885 39.1218 229.381 39.0456 229.831 38.8932C230.28 38.7407 230.665 38.5121 230.985 38.2072C231.305 37.9023 231.549 37.5288 231.717 37.0868L236.222 37.384C235.993 38.4663 235.524 39.4115 234.815 40.2194C234.114 41.0197 233.207 41.6447 232.094 42.0944C230.989 42.5365 229.712 42.7575 228.264 42.7575Z" fill="#16376D"/>
<path d="M202.48 19L208.14 36.7898H208.357L214.028 19H219.515L211.444 42.4148H205.064L196.981 19H202.48Z" fill="#16376D"/>
<path d="M195.112 24.8537V28.5123H184.536V24.8537H195.112ZM186.937 20.6464H191.808V37.0185C191.808 37.4682 191.876 37.8188 192.013 38.0703C192.151 38.3142 192.341 38.4857 192.585 38.5848C192.837 38.6839 193.126 38.7334 193.454 38.7334C193.683 38.7334 193.911 38.7144 194.14 38.6762C194.369 38.6305 194.544 38.5962 194.666 38.5734L195.432 42.1976C195.188 42.2738 194.845 42.3615 194.403 42.4606C193.961 42.5673 193.423 42.6321 192.791 42.6549C191.617 42.7007 190.588 42.5444 189.704 42.1862C188.827 41.828 188.145 41.2715 187.657 40.517C187.17 39.7624 186.929 38.8096 186.937 37.6587V20.6464Z" fill="#16376D"/>
<path d="M174.532 42.7575C172.726 42.7575 171.171 42.3917 169.867 41.66C168.572 40.9206 167.573 39.8764 166.872 38.5273C166.171 37.1706 165.82 35.5662 165.82 33.714C165.82 31.9076 166.171 30.3222 166.872 28.9579C167.573 27.5935 168.56 26.5303 169.833 25.7681C171.114 25.0059 172.615 24.6248 174.338 24.6248C175.496 24.6248 176.575 24.8115 177.573 25.185C178.579 25.5508 179.456 26.1034 180.203 26.8428C180.958 27.5821 181.544 28.512 181.964 29.6324C182.383 30.7452 182.592 32.0486 182.592 33.5425V34.8802H167.764V31.8619H178.008C178.008 31.1606 177.855 30.5394 177.55 29.9983C177.246 29.4571 176.823 29.0341 176.281 28.7292C175.748 28.4167 175.127 28.2605 174.418 28.2605C173.678 28.2605 173.023 28.432 172.451 28.7749C171.887 29.1103 171.445 29.5638 171.125 30.1355C170.805 30.6995 170.641 31.3283 170.633 32.0219V34.8916C170.633 35.7605 170.794 36.5113 171.114 37.1439C171.441 37.7765 171.903 38.2644 172.497 38.6073C173.092 38.9503 173.797 39.1218 174.612 39.1218C175.153 39.1218 175.649 39.0456 176.098 38.8932C176.548 38.7407 176.933 38.5121 177.253 38.2072C177.573 37.9023 177.817 37.5288 177.985 37.0868L182.49 37.384C182.261 38.4663 181.792 39.4115 181.083 40.2194C180.382 41.0197 179.475 41.6447 178.362 42.0944C177.257 42.5365 175.98 42.7575 174.532 42.7575Z" fill="#16376D"/>
<path d="M146.156 49V24.8534H150.957V27.8031H151.175C151.388 27.3306 151.697 26.8504 152.101 26.3626C152.512 25.8671 153.046 25.4556 153.701 25.1278C154.364 24.7924 155.188 24.6248 156.171 24.6248C157.451 24.6248 158.633 24.9601 159.715 25.6309C160.797 26.294 161.663 27.2963 162.31 28.6377C162.958 29.9716 163.282 31.6446 163.282 33.6568C163.282 35.6157 162.966 37.2697 162.333 38.6188C161.708 39.9603 160.855 40.9778 159.772 41.6714C158.698 42.3574 157.493 42.7004 156.159 42.7004C155.214 42.7004 154.41 42.5441 153.747 42.2316C153.092 41.9191 152.554 41.5266 152.135 41.054C151.716 40.5738 151.396 40.0898 151.175 39.602H151.026V49H146.156ZM150.923 33.634C150.923 34.6782 151.068 35.589 151.358 36.3665C151.647 37.1439 152.066 37.7499 152.615 38.1843C153.164 38.6112 153.831 38.8246 154.616 38.8246C155.409 38.8246 156.079 38.6074 156.628 38.1729C157.177 37.7308 157.592 37.1211 157.874 36.3436C158.164 35.5585 158.309 34.6553 158.309 33.634C158.309 32.6203 158.168 31.7285 157.886 30.9587C157.604 30.1888 157.188 29.5867 156.64 29.1522C156.091 28.7178 155.416 28.5006 154.616 28.5006C153.823 28.5006 153.153 28.7102 152.604 29.1294C152.063 29.5486 151.647 30.1431 151.358 30.9129C151.068 31.6827 150.923 32.5898 150.923 33.634Z" fill="#16376D"/>
<path d="M125.782 49V24.8534H130.584V27.8031H130.801C131.014 27.3306 131.323 26.8504 131.727 26.3626C132.138 25.8671 132.672 25.4556 133.327 25.1278C133.991 24.7924 134.814 24.6248 135.797 24.6248C137.078 24.6248 138.259 24.9601 139.341 25.6309C140.424 26.294 141.289 27.2963 141.937 28.6377C142.584 29.9716 142.908 31.6446 142.908 33.6568C142.908 35.6157 142.592 37.2697 141.959 38.6188C141.334 39.9603 140.481 40.9778 139.398 41.6714C138.324 42.3574 137.119 42.7004 135.786 42.7004C134.84 42.7004 134.036 42.5441 133.373 42.2316C132.718 41.9191 132.18 41.5266 131.761 41.054C131.342 40.5738 131.022 40.0898 130.801 39.602H130.652V49H125.782ZM130.549 33.634C130.549 34.6782 130.694 35.589 130.984 36.3665C131.273 37.1439 131.693 37.7499 132.241 38.1843C132.79 38.6112 133.457 38.8246 134.242 38.8246C135.035 38.8246 135.706 38.6074 136.254 38.1729C136.803 37.7308 137.219 37.1211 137.501 36.3436C137.79 35.5585 137.935 34.6553 137.935 33.634C137.935 32.6203 137.794 31.7285 137.512 30.9587C137.23 30.1888 136.815 29.5867 136.266 29.1522C135.717 28.7178 135.042 28.5006 134.242 28.5006C133.449 28.5006 132.779 28.7102 132.23 29.1294C131.689 29.5486 131.273 30.1431 130.984 30.9129C130.694 31.6827 130.549 32.5898 130.549 33.634Z" fill="#16376D"/>
<path d="M117.015 34.9376V24.8536H121.886V42.4148H117.21V39.225H117.027C116.63 40.2539 115.971 41.0809 115.049 41.7059C114.134 42.3309 113.018 42.6434 111.699 42.6434C110.525 42.6434 109.492 42.3767 108.601 41.8431C107.709 41.3096 107.011 40.5512 106.508 39.5679C106.013 38.5847 105.761 37.4071 105.754 36.0351V24.8536H110.624V35.1662C110.632 36.2028 110.91 37.0222 111.459 37.6243C112.008 38.2265 112.743 38.5275 113.665 38.5275C114.252 38.5275 114.801 38.3942 115.312 38.1274C115.822 37.853 116.234 37.449 116.547 36.9155C116.867 36.3819 117.023 35.7226 117.015 34.9376Z" fill="#16376D"/>
<path d="M84.9999 42.4149V19.0001H94.2378C96.0137 19.0001 97.5267 19.3392 98.7767 20.0176C100.027 20.6883 100.979 21.622 101.635 22.8187C102.298 24.0077 102.63 25.3797 102.63 26.9346C102.63 28.4895 102.294 29.8614 101.624 31.0505C100.953 32.2395 99.981 33.1656 98.7081 33.8287C97.4428 34.4918 95.9108 34.8234 94.112 34.8234H88.224V30.8561H93.3117C94.2644 30.8561 95.0495 30.6922 95.6669 30.3645C96.2919 30.0291 96.7568 29.568 97.0617 28.9811C97.3742 28.3866 97.5305 27.7044 97.5305 26.9346C97.5305 26.1571 97.3742 25.4788 97.0617 24.8995C96.7568 24.3126 96.2919 23.8591 95.6669 23.539C95.0419 23.2112 94.2492 23.0474 93.2888 23.0474H89.9504V42.4149H84.9999Z" fill="#16376D"/>
<path d="M37.6289 67.8115C37.6289 63.9999 38.3842 58.1213 42.5 52.4999C44.2529 50.1056 48.6829 44.9995 55.5324 43.1507C60.4422 41.7566 65.1399 42.3021 66.8372 42.6658C66.7159 43.1912 66.3583 44.5328 65.8976 45.6966C65.3218 47.1514 65.1742 47.8061 64.0489 49.8791C62.8972 52.0006 61.7152 53.8494 59.5633 56.3952C58.937 57.1428 57.1531 58.9902 55.1687 60.5777C52.7441 62.5174 50.7741 63.6691 48.501 64.7601C47.4605 65.245 44.9126 66.3301 43.0456 66.7907C40.8754 67.3262 39.2818 67.6259 37.7043 67.8115C37.6735 67.8151 37.6775 67.8141 37.6942 67.8115H37.6289Z" fill="#16376D"/>
<path d="M64.8888 19.7605C63.5855 16.8509 61.5549 14.002 60.4335 12.6078C58.8272 12.6685 56.8875 12.7676 54.4326 13.1534C50.1895 13.8202 49.1894 14.0626 45.4919 15.2143C41.7943 16.366 37.5512 18.336 33.884 20.5485C30.2168 22.7609 26.3071 25.7614 22.852 29.4286C19.3969 33.0958 16.9117 36.5206 14.8205 40.2181C12.7293 43.9157 12.214 45.4311 10.8502 48.9468C9.7591 51.7593 8.9812 55.3114 8.72864 56.7358C9.57725 57.6754 10.4562 58.524 11.0017 59.0089C11.4866 59.5423 13.1637 60.8678 13.9416 61.4638C16.3056 63.1004 17.8816 64.0349 19.9425 64.9795C22.1246 65.9797 24.4886 66.7071 25.6706 66.9798C26.8526 67.2526 27.7316 67.4951 30.1259 67.7981C32.0413 68.0406 34.5202 68.0403 35.5001 67.9999C35.4799 67.1513 35.46 65.0462 35.7025 63.4944C36.0055 61.5548 36.0965 61.2517 36.4299 59.9484C36.6966 58.9059 37.1875 57.6148 37.3997 57.0995C37.531 56.6954 38.0665 55.4144 39.1575 53.5232C40.2486 51.632 41.6933 49.9065 42.2792 49.2801C42.6328 48.8154 44.128 47.2192 46.2192 45.6432C48.5226 43.849 51.4423 42.5316 52.6142 42.0972C55.7359 40.9455 58.1908 40.5212 60.5851 40.3697C63.0582 40.1272 66.1213 40.5313 67.3437 40.7637C67.9195 37.8238 68.2692 33.9633 67.7377 29.762C67.1012 24.7309 65.6354 21.4274 64.8888 19.7605Z" fill="#2D6BD1"/>
<path d="M3.67781 49.4276C4.28396 50.6399 5.89027 53.307 7.10257 54.7921C7.36477 53.7355 7.43647 53.2977 7.78907 52.0989C8.24369 50.5532 8.82021 48.6396 8.92103 48.3971C9.83026 45.9119 10.3955 44.5826 11.426 42.4004C11.9412 41.3094 13.396 38.5514 15.2145 35.8237C16.6692 33.6415 18.1442 31.8029 18.6998 31.1563C19.4272 30.2471 21.544 27.8225 23.3975 26.1252C25.9131 23.8218 27.0345 22.9429 28.2771 22.0034C29.2712 21.2517 30.4592 20.4173 30.9441 20.094C31.4796 19.7505 32.7747 18.9241 33.3081 18.6089C33.8416 18.2937 35.1872 17.538 35.8843 17.1541C36.2379 16.9622 37.6361 16.2328 38.8241 15.6994C40.0122 15.166 41.0972 14.7497 41.6731 14.5174C43.0975 13.9415 44.7038 13.4116 46.8557 12.7595C47.6558 12.5171 49.2298 12.1534 49.9168 12.0018C50.4017 11.9008 51.5291 11.6503 51.9171 11.5775C52.402 11.4866 54.1886 11.2022 55.4934 11.032C56.1904 10.9411 58.1301 10.7895 58.7666 10.7592C58.6757 10.6683 58.3726 10.3046 57.4133 9.39115C56.0472 8.09028 54.4129 6.78469 53.6855 6.29976C52.9581 5.81484 51.3518 4.69346 49.6546 3.84484C47.9573 2.99623 47.9573 2.99623 46.6238 2.45069C45.557 2.01426 44.7447 1.74351 44.4719 1.66269C44.1083 1.55156 43.2536 1.29293 42.7444 1.14746C41.8655 0.904995 42.0473 0.965611 40.7744 0.692841C39.7561 0.474626 38.471 0.298841 37.9558 0.238226C36.6829 0.0866878 36.4404 0.0866874 34.9553 0.0260721C33.1684 -0.0468634 32.561 0.0563798 32.2579 0.0563798C32.0155 0.0563798 31.0456 0.1372 30.591 0.177611C30.2576 0.207918 29.3666 0.304903 28.4695 0.45038C27.5724 0.595857 26.742 0.773662 26.4389 0.84438C25.8832 0.96561 24.287 1.35961 23.2869 1.7233C22.1051 2.15305 21.4179 2.40017 21.226 2.48099C19.559 3.17807 19.559 3.20838 18.5892 3.6933C17.6312 4.17232 17.1344 4.4813 16.3464 4.93592C15.5584 5.39053 14.922 5.84515 14.3158 6.26945C13.7096 6.69376 13.0429 7.20899 12.6489 7.54238C12.3579 7.73635 11.0931 8.87592 10.497 9.42145C10.103 9.80535 9.13319 10.7792 8.4058 11.6036C7.49657 12.6341 7.2238 13.0281 6.64796 13.7858C6.07211 14.5435 5.49626 15.4527 5.43565 15.5436C5.37503 15.6345 4.73857 16.6347 4.16273 17.6651C3.58688 18.6956 3.2838 19.3927 3.13227 19.7261C2.98073 20.0595 2.4655 21.1808 2.22303 21.8476C2.02907 22.381 1.6977 23.363 1.55627 23.7873C1.13196 25.0299 0.434883 27.6667 0.131807 30.9399C-0.112686 33.5804 0.0408839 36.1023 0.131807 37.0317C0.343961 39.3351 0.61673 40.8808 1.37442 43.6388C2.01496 45.9704 3.18278 48.4678 3.67781 49.4276Z" fill="#96BEFF"/>
</svg>
